<svg xmlns="http://www.w3.org/2000/svg" xmlns:xlink="http://www.w3.org/1999/xlink" viewBox="-2314 -1412 306 206"><defs><style>.a{clip-path:url(#b);}.b{fill:#0476d8;}.c,.d,.e{fill:#fff;}.c{font-size:34px;}.c,.d{font-family:HelveticaNeue-Bold, Helvetica Neue;font-weight:700;}.d{font-size:14px;}</style><clipPath id="b"><rect x="-2314" y="-1412" width="306" height="206"/></clipPath></defs><g id="a" class="a"><rect class="e" x="-2314" y="-1412" width="306" height="206"/><g transform="translate(-2583 -1636)"><path class="b" d="M440.1,415.8H404.8a21.211,21.211,0,0,1-21.2-21.2V260.7a21.211,21.211,0,0,1,21.2-21.2h35.3a21.211,21.211,0,0,1,21.2,21.2V394.6A21.211,21.211,0,0,1,440.1,415.8Z"/><path class="b" d="M514.3,311.4v34.4A21.211,21.211,0,0,1,493.1,367H352.5a21.211,21.211,0,0,1-21.2-21.2V311.4a21.211,21.211,0,0,1,21.2-21.2H493.1A21.147,21.147,0,0,1,514.3,311.4Z"/><text class="c" transform="translate(397.098 314.259)"><tspan x="0" y="0">+1 </tspan></text><text class="d" transform="translate(373.631 331.959)"><tspan x="0" y="0">POINTS FOR</tspan></text><text class="d" transform="translate(383.948 349.659)"><tspan x="0" y="0">UPVOTES</tspan></text></g></g></svg>