<svg xmlns="http://www.w3.org/2000/svg" xmlns:xlink="http://www.w3.org/1999/xlink" viewBox="-2314 -1412 306 206">
  <defs>
    <style>
      .cls-1 {
        clip-path: url(#clip-_1);
      }

      .cls-2 {
        fill: #0476d8;
      }

      .cls-3, .cls-5 {
        fill: #fff;
      }

      .cls-3 {
        font-size: 25px;
        font-family: HelveticaNeue-Bold, Helvetica Neue;
        font-weight: 700;
      }

      .cls-4 {
        font-size: 14px;
      }
    </style>
    <clipPath id="clip-_1">
      <rect x="-2314" y="-1412" width="306" height="206"/>
    </clipPath>
  </defs>
  <g id="_1" data-name="+1" class="cls-1">
    <rect class="cls-5" x="-2314" y="-1412" width="306" height="206"/>
    <g id="Group_52" data-name="Group 52" transform="translate(-2593 -1634)">
      <g id="Group_50" data-name="Group 50">
        <path id="Path_51" data-name="Path 51" class="cls-2" d="M440.1,415.8H404.8a21.211,21.211,0,0,1-21.2-21.2V260.7a21.211,21.211,0,0,1,21.2-21.2h35.3a21.211,21.211,0,0,1,21.2,21.2V394.6A21.211,21.211,0,0,1,440.1,415.8Z"/>
        <path id="Path_52" data-name="Path 52" class="cls-2" d="M514.3,311.4v34.4A21.211,21.211,0,0,1,493.1,367H352.5a21.211,21.211,0,0,1-21.2-21.2V311.4a21.211,21.211,0,0,1,21.2-21.2H493.1A21.147,21.147,0,0,1,514.3,311.4Z"/>
      </g>
    </g>
    <text id="_1_POINT_FOR_EVERY_UPVOTE" data-name="+1 
POINT FOR 
EVERY UPVOTE" class="cls-3" transform="translate(-2170 -1325)"><tspan x="-16.396" y="0">+1</tspan><tspan class="cls-4" y="0"> </tspan><tspan class="cls-4"><tspan x="-40.187" y="20">POINT FOR </tspan><tspan x="-53.417" y="37">EVERY UPVOTE</tspan></tspan></text>
  </g>
</svg>
