<svg xmlns="http://www.w3.org/2000/svg" xmlns:xlink="http://www.w3.org/1999/xlink" viewBox="-2657 -1412 306 206"><defs><style>.a{clip-path:url(#b);}.b{fill:#0476d8;}.c,.d,.e{fill:#fff;}.c{font-size:34px;}.c,.d{font-family:HelveticaNeue-Bold, Helvetica Neue;font-weight:700;}.d{font-size:14px;}</style><clipPath id="b"><rect x="-2657" y="-1412" width="306" height="206"/></clipPath></defs><g id="a" class="a"><rect class="e" x="-2657" y="-1412" width="306" height="206"/><g transform="translate(-2599 -1401)"><path class="b" d="M114.1,183.4H75.7a21.211,21.211,0,0,1-21.2-21.2V21.2A21.211,21.211,0,0,1,75.7,0h38.4a21.211,21.211,0,0,1,21.2,21.2V162.1A21.232,21.232,0,0,1,114.1,183.4Z"/><path class="b" d="M190.4,73.9v37.5a21.211,21.211,0,0,1-21.2,21.2H21.2A21.361,21.361,0,0,1,0,111.3V73.9A21.211,21.211,0,0,1,21.2,52.7H169.1A21.106,21.106,0,0,1,190.4,73.9Z"/><text class="c" transform="matrix(1, -0.017, 0.017, 1, 63.005, 78.844)"><tspan x="0" y="0">+10 </tspan></text><text class="d" transform="matrix(1, -0.017, 0.017, 1, 64.928, 96.516)"><tspan x="0" y="0">POINTS </tspan></text><text class="d" transform="matrix(1, -0.017, 0.017, 1, 52.793, 114.423)"><tspan x="0" y="0">FOR EVERY</tspan></text><text class="d" transform="matrix(1, -0.017, 0.017, 1, 75.346, 131.747)"><tspan x="0" y="0">POST</tspan></text></g></g></svg>