<svg xmlns="http://www.w3.org/2000/svg" xmlns:xlink="http://www.w3.org/1999/xlink" viewBox="-2657 -1412 306 206">
  <defs>
    <style>
      .cls-1 {
        clip-path: url(#clip-_10);
      }

      .cls-2 {
        fill: #0476d8;
      }

      .cls-3, .cls-5 {
        fill: #fff;
      }

      .cls-3 {
        font-size: 25px;
        font-family: HelveticaNeue-Bold, Helvetica Neue;
        font-weight: 700;
      }

      .cls-4 {
        font-size: 14px;
      }
    </style>
    <clipPath id="clip-_10">
      <rect x="-2657" y="-1412" width="306" height="206"/>
    </clipPath>
  </defs>
  <g id="_10" data-name="+10" class="cls-1">
    <rect class="cls-5" x="-2657" y="-1412" width="306" height="206"/>
    <g id="Group_49" data-name="Group 49" transform="translate(-2599 -1401)">
      <path id="Path_49" data-name="Path 49" class="cls-2" d="M114.1,183.4H75.7a21.211,21.211,0,0,1-21.2-21.2V21.2A21.211,21.211,0,0,1,75.7,0h38.4a21.211,21.211,0,0,1,21.2,21.2V162.1A21.232,21.232,0,0,1,114.1,183.4Z"/>
      <path id="Path_50" data-name="Path 50" class="cls-2" d="M190.4,73.9v37.5a21.211,21.211,0,0,1-21.2,21.2H21.2A21.361,21.361,0,0,1,0,111.3V73.9A21.211,21.211,0,0,1,21.2,52.7H169.1A21.106,21.106,0,0,1,190.4,73.9Z"/>
    </g>
    <text id="_10_POINTS_FOR_EVERY_POST" data-name="+10 
POINTS FOR 
EVERY POST" class="cls-3" transform="translate(-2504 -1324)"><tspan x="-23.346" y="0">+10</tspan><tspan class="cls-4" y="0"> </tspan><tspan class="cls-4"><tspan x="-44.73" y="20">POINTS FOR </tspan><tspan x="-43.827" y="37">EVERY POST</tspan></tspan></text>
  </g>
</svg>
